<svg xmlns="http://www.w3.org/2000/svg" version="1.1" xmlns:xlink="http://www.w3.org/1999/xlink" xmlns:svgjs="http://svgjs.com/svgjs" height="83.2" width="309.64140625"><defs id="SvgjsDefs1652"></defs><g id="SvgjsG1653" rel="mainfill" name="main_text" xmlns:name="main_text" transform="translate(98.19999999999999,-183.95078125)" fill="#000000"><path d="M17.85 225.03L16.21 224.08L16.21 218.61C16.21 216.43 15.67 214.08 13.95 212.48C12.22 210.83 10.16 210.38 6.91 210.88C6.38 210.96 5.92 211.16 5.43 211.53C3.04 213.26 1.89 215.32 1.97 217.75C1.97 218.90 2.02 221.08 1.97 224.08L0.33 225.03C0.08 225.19 0 225.36 0 225.64C0 225.89 0.08 226.05 0.33 226.22L1.97 227.17L1.97 233.17C1.97 234.49 2.18 235.56 2.67 236.46C5.31 241.40 12.14 241.73 15.38 236.50C15.59 236.13 15.76 235.80 15.80 235.43C16.13 233.75 16.25 232.68 16.25 232.23L16.21 227.17L17.85 226.22C18.10 226.05 18.18 225.89 18.18 225.64C18.18 225.36 18.10 225.15 17.85 225.03ZM10.82 233.91C10.08 235.56 7.69 235.52 7.03 233.83C6.87 233.50 6.83 232.88 6.83 232.06L6.83 218.65C6.83 217.99 6.83 217.58 6.87 217.33C7.16 215.24 10.20 214.99 10.86 217.00C10.98 217.42 11.07 217.87 11.07 218.44L11.07 232.35C11.07 233.01 10.98 233.54 10.82 233.91ZM43.40 215.24C43.65 213.55 43.81 212.60 43.81 212.36C43.89 211.57 43.65 211.20 42.86 211.20C42.12 211.16 41.30 211.16 40.40 211.16C39.08 211.20 38.91 211.33 38.71 212.60C38.59 213.18 38.46 213.88 38.34 214.78C38.01 217.29 37.85 218.44 37.56 220.13C37.43 220.79 36.69 220.87 36.49 220.21C36.32 219.80 36.24 219.47 36.24 219.27C36.04 218.03 35.62 215.11 35.46 214.13C35.46 213.92 35.25 211.25 34.02 211.20C32.83 211.16 31.80 211.16 30.98 211.20C30.40 211.20 30.07 211.53 29.99 212.07C29.82 212.89 29.62 214.37 29.29 216.55C29.25 216.96 28.96 219.19 28.80 220.09C28.75 220.58 28.38 220.95 28.14 220.87C27.85 220.79 27.68 220.54 27.60 220.09C27.44 219.14 27.11 216.88 27.03 216.26L26.33 212.11C26.16 210.96 25.71 211.20 23.74 211.20L23.74 211.16L23.08 211.16C21.43 211.12 21.10 211.37 21.43 213.14C21.97 216.31 24.93 234.36 25.22 235.89L25.79 239.05C26.00 240.29 27.36 240.04 28.55 240.04C30.52 240.04 30.65 239.96 30.93 238.03C31.10 236.96 31.43 234.69 31.88 231.32C32.00 230.70 32.13 230.25 32.29 230.09C32.54 229.80 32.91 229.84 33.07 230.13C33.24 230.66 33.40 231.40 33.53 232.35C33.61 233.01 33.81 234.08 34.10 235.72C34.35 237.12 34.51 238.27 34.60 239.10C34.68 239.67 34.97 239.96 35.58 240C36.53 240.04 37.48 240.04 38.34 240.04C39.29 240 39.53 239.75 39.70 238.77L39.70 238.52C39.74 238.44 39.74 238.35 39.74 238.27C40.52 233.13 42.58 220.54 43.40 215.24ZM63.02 237.74L63.02 213.18C63.02 212.23 63.10 211.20 62.24 211.16C61.62 211.08 60.96 211.08 60.26 211.08C58.25 211.08 58.17 211.16 58.17 213.18C58.17 213.01 58.17 215.98 58.13 222.11C58.13 223.46 58.17 223.59 57.92 224.37C57.84 224.86 57.22 224.94 57.01 224.45C56.93 224.29 56.85 224.08 56.77 223.83C56.36 222.35 54.83 217.29 54.18 215.11C54.09 214.74 53.93 214.21 53.72 213.55C53.48 212.81 53.31 212.27 53.23 211.99C53.07 211.41 52.70 211.12 52.20 211.12L48.29 211.12C47.35 211.16 47.43 212.15 47.43 213.43L47.43 237.49C47.43 238.81 47.27 239.84 48.54 240L49.98 240C52.28 240 52.33 240 52.33 237.78L52.33 228.85C52.33 227.99 52.37 227.41 52.49 227.08C52.70 226.59 53.23 226.47 53.48 226.96L53.97 228.32C53.89 228.11 54.92 231.24 57.01 237.78L57.22 238.35C57.34 238.64 57.38 238.85 57.43 239.01C57.84 240.29 59.73 240 60.72 240C62.90 240 63.02 239.92 63.02 237.74ZM82.23 240L86.92 240C88.03 239.96 88.11 238.40 88.28 237.53L90.13 227.21L91.86 226.22C92.10 226.05 92.23 225.89 92.23 225.60C92.23 225.36 92.10 225.15 91.86 225.03L90.66 224.33C91.82 217.79 92.39 214.95 92.47 214.58C92.64 213.63 92.72 212.81 92.80 212.19C92.84 211.57 92.60 211.25 91.94 211.20C91.03 211.16 89.96 211.16 88.73 211.20C87.62 211.25 87.50 213.26 87.37 214.04C86.96 216.43 85.85 223.46 85.36 226.51C85.32 226.92 85.15 227.49 84.99 228.24C84.82 228.81 84.33 228.69 84.21 228.36C84.00 227.74 83.88 227.29 83.79 226.96C83.59 225.56 83.30 223.67 82.93 221.37C82.07 215.69 81.82 214.29 81.45 212.23C81.33 211.45 81.04 211.25 80.26 211.20C79.43 211.16 78.57 211.16 77.67 211.16C76.51 211.25 76.27 211.53 76.39 212.73C76.39 212.85 76.43 213.01 76.47 213.18C76.72 214.74 77.67 219.76 78.08 222.15L78.28 223.26L78.45 224.33L77.29 225.03C77.05 225.15 76.97 225.36 76.97 225.60C76.97 225.89 77.05 226.05 77.29 226.22L78.98 227.21L80.91 238.07C81.04 238.68 81.08 240 82.23 240ZM111.93 237.53C111.89 237.20 108.97 219.97 107.82 213.14C107.69 212.48 107.53 211.74 107.24 211.45C107.08 211.33 106.75 211.25 106.34 211.20L102.59 211.20C101.28 211.20 100.95 211.45 100.70 212.81C100.33 215.07 97.41 232.27 96.42 237.86C96.26 239.05 95.97 239.92 97.12 239.96C97.99 240 99.06 240 100.33 239.96C100.91 239.96 101.24 239.67 101.36 239.05C101.69 237.16 101.89 236.05 101.94 235.72C102.18 233.62 102.51 233.54 104.65 233.54C104.65 233.54 104.77 233.54 104.98 233.58C106.42 233.62 106.50 235.60 106.54 236.01C106.62 236.34 106.67 236.83 106.75 237.45C106.91 238.77 106.95 239.38 107.32 239.71C107.49 239.88 107.74 239.96 108.15 240C108.48 240 111.40 240.12 111.77 239.75C112.10 239.47 112.14 238.72 111.93 237.53ZM105.47 228.48C105.39 229.02 103.09 229.06 103.09 228.44C103.09 228.32 103.09 228.11 103.13 227.91C103.25 226.18 103.50 224.90 103.79 224.12C103.95 223.83 104.40 223.67 104.65 224.12C104.77 224.37 104.86 224.57 104.90 224.74C104.90 224.86 105.35 227.04 105.43 227.78C105.47 228.15 105.47 228.40 105.47 228.48ZM129.70 230.13C129.70 229.55 129.37 229.22 128.80 229.18C127.85 229.14 126.90 229.14 126.04 229.18C125.18 229.18 124.97 229.47 124.89 230.37L124.89 232.64C124.85 234.16 123.78 235.35 122.50 235.27C121.23 235.19 120.61 234.04 120.49 233.01C120.41 232.51 120.41 231.98 120.41 231.40C120.36 228.19 120.36 224.24 120.41 219.47C120.41 218.44 120.32 217.50 121.15 216.59C121.56 216.14 122.05 215.89 122.63 215.89C123.78 215.89 124.81 216.96 124.89 218.53C124.93 221.12 124.72 221.28 125.88 221.37C126.74 221.41 127.56 221.41 128.43 221.37C129.41 221.37 129.70 221.12 129.74 220.13C129.78 218.90 129.99 215.69 128.76 214.21C127.40 212.60 126.21 211.66 125.22 211.29C124.89 211.16 124.48 211.12 124.11 211.08C123.57 211.08 122.71 211.04 121.52 211.08C121.10 211.08 120.65 211.16 120.12 211.37C117.44 212.36 115.72 215.07 115.80 217.58L115.84 233.87C115.84 235.23 116.09 236.30 116.70 237.08C120.94 242.84 128.51 240.53 129.62 234.78C129.78 233.95 129.83 232.43 129.70 230.13ZM149.00 237.53C148.95 237.20 146.03 219.97 144.88 213.14C144.76 212.48 144.59 211.74 144.31 211.45C144.14 211.33 143.81 211.25 143.40 211.20L139.66 211.20C138.34 211.20 138.01 211.45 137.76 212.81C137.39 215.07 134.47 232.27 133.49 237.86C133.32 239.05 133.03 239.92 134.19 239.96C135.05 240 136.12 240 137.39 239.96C137.97 239.96 138.30 239.67 138.42 239.05C138.75 237.16 138.96 236.05 139.00 235.72C139.25 233.62 139.57 233.54 141.71 233.54C141.71 233.54 141.84 233.54 142.04 233.58C143.48 233.62 143.57 235.60 143.61 236.01C143.69 236.34 143.73 236.83 143.81 237.45C143.98 238.77 144.02 239.38 144.39 239.71C144.55 239.88 144.80 239.96 145.21 240C145.54 240 148.46 240.12 148.83 239.75C149.16 239.47 149.20 238.72 149.00 237.53ZM142.54 228.48C142.45 229.02 140.15 229.06 140.15 228.44C140.15 228.32 140.15 228.11 140.19 227.91C140.32 226.18 140.56 224.90 140.85 224.12C141.01 223.83 141.47 223.67 141.71 224.12C141.84 224.37 141.92 224.57 141.96 224.74C141.96 224.86 142.41 227.04 142.50 227.78C142.54 228.15 142.54 228.40 142.54 228.48ZM166.27 213.14C166.27 211.20 166.19 211.20 164.26 211.20L154.38 211.20C153.44 211.20 152.94 211.12 152.62 211.41C152.49 211.53 152.37 211.78 152.37 212.11C152.33 213.06 152.33 214.00 152.37 214.87C152.41 215.69 152.70 215.89 153.52 215.94C153.68 215.98 154.01 215.98 154.47 215.98C155.29 215.98 156.11 215.98 156.52 216.43C156.89 216.84 156.89 217.38 156.89 218.77L156.89 237.74C156.89 238.97 156.73 239.96 157.80 240C158.79 240.04 159.81 240.04 160.88 240C161.87 239.92 161.75 238.97 161.75 237.49L161.75 219.19C161.75 217.58 161.71 216.88 162.20 216.43C162.69 215.94 163.56 215.98 164.38 215.98C165.12 215.98 165.70 215.98 166.03 215.69C166.15 215.52 166.23 215.28 166.23 214.91C166.27 214.58 166.27 213.96 166.27 213.14ZM174.62 237.90L174.62 213.55C174.62 212.15 174.79 211.25 173.68 211.12C172.90 211.08 170.43 211.00 170.02 211.41C169.85 211.57 169.77 212.19 169.77 213.18L169.77 237.70C169.77 238.85 169.65 239.88 170.76 239.96C171.17 240 171.74 240 172.52 240C174.54 240 174.62 239.96 174.62 237.90ZM192.19 232.23L192.15 218.61C192.15 216.43 191.61 214.08 189.88 212.48C188.16 210.83 186.10 210.38 182.85 210.88C182.32 210.96 181.86 211.16 181.37 211.53C178.98 213.26 177.83 215.32 177.91 217.75L177.91 233.17C177.91 234.49 178.12 235.56 178.61 236.46C181.25 241.40 188.07 241.73 191.32 236.50C191.53 236.13 191.69 235.80 191.74 235.43C192.06 233.75 192.19 232.68 192.19 232.23ZM186.76 233.91C186.02 235.56 183.63 235.52 182.97 233.83C182.81 233.50 182.77 232.88 182.77 232.06L182.77 218.65C182.77 217.99 182.77 217.58 182.81 217.33C183.10 215.24 186.14 214.99 186.80 217.00C186.92 217.42 187.00 217.87 187.00 218.44L187.00 232.35C187.00 233.01 186.92 233.54 186.76 233.91ZM211.44 237.74L211.44 213.18C211.44 212.23 211.52 211.20 210.66 211.16C210.04 211.08 209.38 211.08 208.68 211.08C206.67 211.08 206.59 211.16 206.59 213.18C206.59 213.01 206.59 215.98 206.54 222.11C206.54 223.46 206.59 223.59 206.34 224.37C206.26 224.86 205.64 224.94 205.43 224.45C205.35 224.29 205.27 224.08 205.19 223.83C204.78 222.35 203.25 217.29 202.60 215.11C202.51 214.74 202.35 214.21 202.14 213.55C201.90 212.81 201.73 212.27 201.65 211.99C201.48 211.41 201.11 211.12 200.62 211.12L196.71 211.12C195.77 211.16 195.85 212.15 195.85 213.43L195.85 237.49C195.85 238.81 195.68 239.84 196.96 240L198.40 240C200.70 240 200.74 240 200.74 237.78L200.74 228.85C200.74 227.99 200.79 227.41 200.91 227.08C201.11 226.59 201.65 226.47 201.90 226.96L202.39 228.32C202.31 228.11 203.34 231.24 205.43 237.78L205.64 238.35C205.76 238.64 205.80 238.85 205.85 239.01C206.26 240.29 208.15 240 209.14 240C211.32 240 211.44 239.92 211.44 237.74Z" fill="#000000" style="fill: rgb(0, 0, 0);"></path></g><g id="SvgjsG1654" rel="mainfill" name="symbol" xmlns:name="symbol_mainfill" transform="translate(-7.105427357601002e-15,0) scale(2.6)" fill="#ffffff"><g transform="translate(0,-1020.3622)" fill="#ffffff"><path d="m 15.99811,1031.2526 -4.14773,4.1449 1.73231,1.7312 2.07386,-2.0725 a 0.48313226,0.4828069 0 0 1 0.68312,0 l 2.07386,2.0725 1.73231,-1.7312 z" style="opacity: 1; fill-opacity: 1; stroke: none; stroke-width: 1px; stroke-linecap: round; stroke-linejoin: round; stroke-miterlimit: 4; stroke-dasharray: none; stroke-dashoffset: 0px; stroke-opacity: 1; fill: rgb(255, 255, 255);" fill="#ffffff"></path><path d="m 7.3026,1032.2182 -1.00768,1.0069 1.00768,1.007 1.00769,-1.007 z" style="opacity: 1; fill-opacity: 1; stroke: none; stroke-width: 1px; stroke-linecap: round; stroke-linejoin: round; stroke-miterlimit: 4; stroke-dasharray: none; stroke-dashoffset: 0px; stroke-opacity: 1; fill: rgb(255, 255, 255);" fill="#ffffff"></path><path d="m 24.69363,1032.2182 -1.00769,1.0069 1.00769,1.007 1.00768,-1.007 z" style="opacity: 1; fill-opacity: 1; stroke: none; stroke-width: 1px; stroke-linecap: round; stroke-linejoin: round; stroke-miterlimit: 4; stroke-dasharray: none; stroke-dashoffset: 0px; stroke-opacity: 1; fill: rgb(255, 255, 255);" fill="#ffffff"></path><path d="m 5.61181,1033.9078 -3.57218,3.5697 a 14.009435,14 0 0 0 1.36622,4.9936 l 7.07832,-7.0736 -1.49077,-1.4897 -1.34924,1.3484 a 0.48313226,0.4828069 0 0 1 -0.68312,0 z" style="opacity: 1; fill-opacity: 1; stroke: none; stroke-width: 1px; stroke-linecap: round; stroke-linejoin: round; stroke-miterlimit: 4; stroke-dasharray: none; stroke-dashoffset: 0px; stroke-opacity: 1; fill: rgb(255, 255, 255);" fill="#ffffff"></path><path d="m 23.00283,1033.9078 -1.49077,1.4897 7.07455,7.0698 a 14.009435,14 0 0 0 1.36622,-4.9935 l -3.56841,-3.566 -1.34923,1.3484 a 0.48313226,0.4828069 0 0 1 -0.68312,0 z" style="opacity: 1; fill-opacity: 1; stroke: none; stroke-width: 1px; stroke-linecap: round; stroke-linejoin: round; stroke-miterlimit: 4; stroke-dasharray: none; stroke-dashoffset: 0px; stroke-opacity: 1; fill: rgb(255, 255, 255);" fill="#ffffff"></path><path d="m 11.16727,1036.0802 -7.28399,7.2791 a 14.009435,14 0 0 0 12.11483,7.0037 14.009435,14 0 0 0 12.11862,-7 l -7.28778,-7.2828 -2.07386,2.0725 a 0.48313226,0.4828069 0 0 1 -0.68312,0 l -2.07386,-2.0725 -2.07386,2.0725 a 0.48313226,0.4828069 0 0 1 -0.68312,0 z" style="opacity: 1; fill-opacity: 1; stroke: none; stroke-width: 1px; stroke-linecap: round; stroke-linejoin: round; stroke-miterlimit: 4; stroke-dasharray: none; stroke-dashoffset: 0px; stroke-opacity: 1; fill: rgb(255, 255, 255);" fill="#ffffff"></path><path style="font-style: normal; font-variant: normal; font-weight: normal; font-stretch: normal; font-size: medium; line-height: normal; font-family: sans-serif; text-indent: 0px; text-align: start; text-decoration: none; letter-spacing: normal; word-spacing: normal; text-transform: none; direction: ltr; writing-mode: horizontal-tb; text-anchor: start; white-space: normal; clip-rule: nonzero; display: inline; overflow: visible; visibility: visible; opacity: 1; isolation: auto; mix-blend-mode: normal; color-interpolation: srgb; color-interpolation-filters: linearrgb; fill-opacity: 1; fill-rule: nonzero; stroke: none; stroke-width: 1px; stroke-linecap: round; stroke-linejoin: round; stroke-miterlimit: 4; stroke-dasharray: none; stroke-dashoffset: 0px; stroke-opacity: 1; image-rendering: auto; shape-rendering: auto; text-rendering: auto; fill: rgb(255, 255, 255);" d="m 16,1020.3622 c -8.83063,0 -16,7.1693 -16,16 0,8.8306 7.16937,16 16,16 8.83064,0 16,-7.1694 16,-16 0,-8.8307 -7.16936,-16 -16,-16 z m 0,1 c 8.2902,0 15,6.7098 15,15 0,8.2902 -6.7098,15 -15,15 -8.29019,0 -15,-6.7098 -15,-15 0,-8.2902 6.70981,-15 15,-15 z" fill="#ffffff"></path></g></g></svg>